<svg xmlns="http://www.w3.org/2000/svg" viewBox="0 0 64 64" role="img" aria-label="CookingDB">
  <!-- warm parchment tile -->
  <rect x="2" y="2" width="60" height="60" rx="14" fill="#F7EFE4" stroke="#D6C3AD" stroke-width="2"/>

  <!-- recipe card -->
  <rect x="14" y="12" width="36" height="40" rx="7" fill="#FFFBF4" stroke="#5B3A25" stroke-width="3"/>

  <!-- folded corner -->
  <path d="M44 12h6v6z" fill="#A15A3A"/>
  <path d="M44 12l6 6" stroke="#5B3A25" stroke-width="2" stroke-linecap="round"/>

  <!-- “written lines” -->
  <path d="M20 24h24" stroke="#C9A27A" stroke-width="3" stroke-linecap="round"/>
  <path d="M20 31h22" stroke="#C9A27A" stroke-width="3" stroke-linecap="round"/>
  <path d="M20 38h18" stroke="#C9A27A" stroke-width="3" stroke-linecap="round"/>

  <!-- tiny “made with care” heart -->
  <path d="M32 49
           C30.2 47.3 27.6 45.8 27.6 43.6
           C27.6 42.1 28.7 41 30.2 41
           C31.2 41 31.9 41.5 32 41.7
           C32.1 41.5 32.8 41 33.8 41
           C35.3 41 36.4 42.1 36.4 43.6
           C36.4 45.8 33.8 47.3 32 49Z"
        fill="#A15A3A"/>
</svg>
